<?xml version="1.0" encoding="utf-8"?>
<!-- Generator: Adobe Illustrator 19.1.0, SVG Export Plug-In . SVG Version: 6.00 Build 0)  -->
<svg version="1.1" id="Layer_1" xmlns="http://www.w3.org/2000/svg" xmlns:xlink="http://www.w3.org/1999/xlink" x="0px" y="0px"
	 viewBox="0 0 421.4 71" style="enable-background:new 0 0 421.4 71;" xml:space="preserve">
<style type="text/css">
	.st0{fill:#176F7F;}
	.st1{fill:#008DCC;}
	.st2{fill:#FFFFFF;}
	.st3{fill:#6AB77D;}
</style>
<g>
	<g>
		<path class="st2" d="M13.7,27.3v14.6h18.1v5.5H13.7v17.1h26.3v5.5H7.8V27.4c-0.9,0-1.3,0.2-1.7,0.7c-0.5,0.4-0.8,1.1-0.8,1.8
			c0,0.3,0.1,0.6,0.1,0.8H0.1c0-0.3-0.1-0.6-0.1-0.9c0-2.1,0.9-4.1,2.2-5.5c1.4-1.3,3.3-2.4,5.5-2.4h32.2v5.4H13.7z"/>
		<path class="st2" d="M47,61.9c3.2,2.3,6.6,3.6,10.3,3.6c3.9,0,7.2-1.5,7.2-5.3c0-2.6-1.3-3.9-4.3-5.3c-5.7-2.7-13.8-3.6-13.8-11.6
			c0-6,5-9.4,10.8-9.4c3.1,0,7.4,1,9.6,2.6l-1.1,5.1c-3-1.9-6.3-2.5-8.5-2.5c-3.4,0-5.2,1.6-5.2,3.9c0,4.6,7.7,5.3,13,8.5
			c3.2,2,5,4.8,5,8.7c0,7.5-6.7,10.6-13.1,10.6c-5,0-9.4-1.8-12.7-4.6L47,61.9z"/>
		<path class="st2" d="M82.5,66.6c0,1.9-1.8,3.6-3.8,3.6c-1.9,0-3.6-1.8-3.6-3.6c0-2,1.8-3.7,3.6-3.7C80.7,62.9,82.5,64.7,82.5,66.6
			z"/>
		<path class="st2" d="M113.2,63.7c0,1,0.8,1.6,1.6,1.6c0.7,0,1.1-0.4,1.6-1.4l4.5,2.9c-1.1,2.3-3.9,3.8-6.2,3.8
			c-3.6,0-6.8-3.2-6.8-6.9V19.1h5.3V63.7z"/>
		<path class="st2" d="M159.7,66.9c-1.3,2.7-3.9,3.8-6,3.8c-2.8,0-5.3-1.8-6.4-4.3c-2.4,2.9-6,4.3-9.9,4.3
			c-10.2,0-15.3-8.8-15.3-18.2c0-10.7,6.7-18.6,17.4-18.6c2.1,0,5.7,0.3,8.3,0.6h4.5v29.3c0,1,0.8,1.6,1.5,1.6
			c0.8,0,1.2-0.4,1.7-1.5L159.7,66.9z M146.7,39.6c-2.2-0.1-5.7-0.6-7.7-0.6c-7.6,0-11.5,5.8-11.5,13.3c0,6.8,3.2,13.2,9.9,13.2
			c4.1,0,7-2.1,8.5-5.1c0.6-1.1,0.8-2.4,0.8-3.9V39.6z"/>
		<path class="st2" d="M243.1,60.5c0.7,6-4.2,10.5-9.6,10.5c-3,0-5.8-1.4-7.8-4L214,51.6c-3.4-4.7-6-7-12.7-7.4v-7.4h9.2
			c7.8,0,12.2-5,12.2-12.4c0-7.5-4.5-13-11.2-13h-12.9v58.6h-8V11.4H190c-1.8,0-3.5,1.5-3.5,3.5c0,0.4,0.1,0.8,0.2,1.2h-7.6
			c-0.3-3.5,0.9-6.3,3.1-8.7c2.1-2.2,4.8-3.3,7.6-3.3h22c3.4,0,6,0.7,8,1.6c6.4,3.2,10.7,10.7,10.7,18.7c0,9.5-5.9,16.4-13.3,18.2
			l-3.5-1.3c0.6,0.2,1.5,0.8,2.4,1.4l-1.6,0.2l1.8-0.1c0.6,0.5,1.1,1,1.4,1.4l14.1,18.3c0.6,0.9,0.9,1.1,1.4,1.1
			c1.1,0,2.2-1.2,2.2-2.3c0-0.4-0.2-0.8-0.6-1.2L243.1,60.5z M216.2,42.8c0.4-0.1,0.7-0.1,1.1-0.2l0.9,0.3h-1.7L216.2,42.8z"/>
		<path class="st2" d="M296.7,65.8c-1.7,3.8-5.4,5.2-8.3,5.2c-3.8,0-7.3-2.5-8.8-5.9c-3.3,4-8.3,5.9-13.7,5.9
			c-13.9,0-21.1-12-21.1-25c0-14.7,9.1-25.6,23.8-25.6c2.9,0,7.9,0.4,11.3,0.9h6.2v40.2c0,1.3,1.2,2.2,2.1,2.2c1.1,0,1.6-0.5,2.3-2
			L296.7,65.8z M278.9,28.3c-3.1-0.2-7.8-0.8-10.6-0.8c-10.4,0-15.8,8-15.8,18.3c0,9.3,4.4,18.1,13.6,18.1c5.6,0,9.6-2.9,11.6-7
			c0.8-1.5,1.2-3.3,1.2-5.4V28.3z"/>
		<path class="st2" d="M339.6,61.4c0,1.1,1.1,2.2,2.2,2.2c1.1,0,1.4-0.4,2.2-2l6.1,4.1c-1.7,3.8-5.4,5.2-8.3,5.2
			c-3.8,0-7.3-2.5-8.8-5.9c-3.3,4-8.3,5.9-13.6,5.9c-13.7,0-21.2-11.8-21.2-25c0-14.6,9.1-25.6,23.8-25.6c2.5,0,6.8,0.4,10.1,0.8V0
			h7.4V61.4z M332.2,28.4c-1.9-0.3-4.5-0.9-8.1-0.9c-13.7,0-18.3,7.5-18.3,17.8c0,10.2,4.5,18.6,13.6,18.6c5.3,0.1,9.4-2.5,11.6-7
			c0.8-1.5,1.2-3.3,1.2-5.4V28.4z"/>
		<path class="st2" d="M363.2,6.2c0,2.6-2.5,5-5.2,5c-2.6,0-5-2.4-5-5c0-2.7,2.4-5.1,5-5.1C360.7,1.2,363.2,3.6,363.2,6.2z
			 M362.1,61.4c0,1.3,1.2,2.2,2.1,2.2s1.6-0.4,2.1-2l6.3,4.1c-1.6,3.1-4.9,5.2-8.5,5.2c-5.2,0-9.5-4.3-9.5-9.5V21.2h7.4V61.4z"/>
		<path class="st2" d="M421.4,45.8c0,14.7-10.3,25.2-24.4,25.2c-14.3,0-24.2-10.9-24.2-25.1s9.9-25.5,24.3-25.5
			C411.3,20.4,421.4,31.2,421.4,45.8z M380.4,45.8c0,10.8,6.4,18.1,16.7,18.1c10.7,0,16.7-7.9,16.7-18.5c0-10.9-6.5-17.9-16.7-17.9
			C386.2,27.5,380.4,35.6,380.4,45.8z"/>
	</g>
</g>
</svg>
